<svg width="224" height="224" viewBox="0 0 224 224" fill="none" xmlns="http://www.w3.org/2000/svg">
<g clip-path="url(#clip0_1163_961)">
<path d="M159.755 56.0105C148.463 44.7186 132.094 40.3861 114.048 42.3349C118.176 43.4207 121.997 45.0894 125.454 47.2992C127.836 48.8239 130.048 50.5978 132.055 52.5907C138.096 58.5781 142.429 66.5794 144.78 75.929C150.992 100.628 143.719 134.853 118.273 169.515L104.728 161.484L97.001 201.65L145.456 185.632L131.253 177.211C133.238 175.472 135.194 173.663 137.102 171.755C175.308 133.549 185.386 81.6419 159.755 56.0111L159.755 56.0105ZM128.012 56.6957C126.274 54.9753 124.382 53.4587 122.348 52.1584C114.236 46.9727 103.742 45.1092 91.0901 47.9108C74.93 53.9294 58.5652 64.3607 44.1373 78.7886C40.6496 82.2763 37.5849 85.9302 34.5695 89.6146C67.1895 63.2733 106.867 57.774 127.523 78.4299C135.097 86.0046 139.132 96.1382 139.906 107.543C141.73 96.2883 141.375 86.0349 139.187 77.3354C137.053 68.8486 133.226 61.8556 128.012 56.695L128.012 56.6957Z" fill="#333333"/>
</g>
<defs>
<clipPath id="clip0_1163_961">
<rect width="158" height="158" fill="white" transform="translate(112 0.277161) rotate(45)"/>
</clipPath>
</defs>
</svg>
