<svg width="60" height="60" viewBox="0 0 60 60" fill="none" xmlns="http://www.w3.org/2000/svg">
<g clip-path="url(#clip0_1170_608)">
<path d="M44.375 24.7325C46.4589 24.7325 48.4575 23.9047 49.9311 22.4311M44.375 24.7325C42.2911 24.7325 40.2925 23.9047 38.8189 22.4311M44.375 24.7325V30.625M49.9311 22.4311C51.4047 20.9575 52.2325 18.9589 52.2325 16.875M49.9311 22.4311L54.0975 26.5975M52.2325 16.875C52.2325 14.7911 51.4047 12.7925 49.9311 11.3189M52.2325 16.875H58.125M49.9311 11.3189C48.4575 9.84534 46.4589 9.0175 44.375 9.0175M49.9311 11.3189L54.0975 7.1525M44.375 9.0175C42.2911 9.0175 40.2925 9.84534 38.8189 11.3189M44.375 9.0175V3.125M38.8189 11.3189C37.3453 12.7925 36.5175 14.7911 36.5175 16.875M38.8189 11.3189L34.6525 7.1525M36.5175 16.875C36.5175 18.9589 37.3453 20.9575 38.8189 22.4311M36.5175 16.875H30.625M38.8189 22.4311L34.6525 26.5975M43.065 3.125H45.685M53.1725 6.2275L55.0225 8.0775M58.125 15.565V18.185M55.0225 25.6725L53.1725 27.5225M45.685 30.625H43.065M35.5775 27.5225L33.7275 25.6725M30.625 18.185V15.565M33.7275 8.0775L35.5775 6.2275M18.75 37.5L22.9325 34.3625C23.3591 34.0421 23.8467 33.8121 24.3653 33.6867C24.884 33.5613 25.4228 33.5431 25.9487 33.6332C26.4746 33.7233 26.9766 33.9198 27.4239 34.2107C27.8712 34.5016 28.2544 34.8808 28.55 35.325C28.9792 35.9692 29.2082 36.7259 29.2082 37.5C29.2082 38.2741 28.9792 39.0308 28.55 39.675L24.4375 45.8425C23.1738 47.7369 21.3649 49.2032 19.25 50.0475L13.125 52.5M20.625 24.375L11.6375 28.2275C8.98211 29.3649 6.86599 31.4801 5.7275 34.135L2.785 41C2.18426 42.4014 1.87466 43.9103 1.875 45.435V58.125" stroke="#87CEEB" stroke-width="4" stroke-linecap="round" stroke-linejoin="round"/>
<path d="M58.125 35.625V52.5C58.125 53.9918 57.5324 55.4226 56.4775 56.4775C55.4226 57.5324 53.9918 58.125 52.5 58.125H26.25C24.7582 58.125 23.3274 57.5324 22.2725 56.4775C21.2176 55.4226 20.625 53.9918 20.625 52.5V49.3875M20.625 36.0925V7.5C20.625 6.00816 21.2176 4.57742 22.2725 3.52252C23.3274 2.46763 24.7582 1.875 26.25 1.875H30.625" stroke="#87CEEB" stroke-width="4" stroke-linecap="round" stroke-linejoin="round"/>
</g>
<defs>
<clipPath id="clip0_1170_608">
<rect width="60" height="60" fill="white"/>
</clipPath>
</defs>
</svg>
