<svg width="102" height="102" viewBox="0 0 102 102" fill="none" xmlns="http://www.w3.org/2000/svg">
<path d="M34 21.25H42.5V29.75H34V21.25ZM25.5 29.75H34V38.25H25.5V29.75ZM17 38.25H25.5V46.75H17V38.25ZM8.5 46.75H17V55.25H8.5V46.75ZM17 55.25H25.5V63.75H17V55.25ZM25.5 63.75H34V72.25H25.5V63.75ZM34 72.25H42.5V80.75H34V72.25ZM68 21.25H59.5V29.75H68V21.25ZM76.5 29.75H68V38.25H76.5V29.75ZM85 38.25H76.5V46.75H85V38.25ZM93.5 46.75H85V55.25H93.5V46.75ZM85 55.25H76.5V63.75H85V55.25ZM76.5 63.75H68V72.25H76.5V63.75ZM68 72.25H59.5V80.75H68V72.25Z" fill="#87CEEB"/>
</svg>
