<svg width="60" height="60" viewBox="0 0 60 60" fill="none" xmlns="http://www.w3.org/2000/svg">
<g clip-path="url(#clip0_1165_579)">
<g filter="url(#filter0_d_1165_579)">
<path d="M41.25 56.25V55.53C41.25 45.5831 32.8613 37.5 22.5 37.5C12.1387 37.5187 3.75 45.5831 3.75 55.53V56.25H41.25ZM46.875 31.875L43.1325 31.4719L39.375 31.875C39.2507 31.875 39.1315 31.9244 39.0435 32.0123C38.9556 32.1002 38.9063 32.2194 38.9063 32.3437V33.75L43.1325 34.3069L47.3438 33.75V32.3437C47.3438 32.2194 47.2944 32.1002 47.2065 32.0123C47.1186 31.9244 46.9993 31.875 46.875 31.875Z" fill="#FF6723"/>
<path d="M48.75 56.25V35.4562C48.75 34.5187 48.0244 33.75 47.1375 33.75H39.1125C38.2256 33.75 37.5 34.5187 37.5 35.4562V56.25H48.75Z" fill="#FF8101"/>
<path d="M15 23.7338C15 24.7283 14.6049 25.6822 13.9017 26.3854C13.1984 27.0887 12.2446 27.4838 11.25 27.4838C10.2554 27.4838 9.30161 27.0887 8.59835 26.3854C7.89509 25.6822 7.5 24.7283 7.5 23.7338C7.5 22.7392 7.89509 21.7854 8.59835 21.0821C9.30161 20.3789 10.2554 19.9838 11.25 19.9838C12.2446 19.9838 13.1984 20.3789 13.9017 21.0821C14.6049 21.7854 15 22.7392 15 23.7338ZM37.5 23.7338C37.5 24.7283 37.1049 25.6822 36.4016 26.3854C35.6984 27.0887 34.7446 27.4838 33.75 27.4838C32.7554 27.4838 31.8016 27.0887 31.0984 26.3854C30.3951 25.6822 30 24.7283 30 23.7338C30 22.7392 30.3951 21.7854 31.0984 21.0821C31.8016 20.3789 32.7554 19.9838 33.75 19.9838C34.7446 19.9838 35.6984 20.3789 36.4016 21.0821C37.1049 21.7854 37.5 22.7392 37.5 23.7338ZM22.5 44.0625C19.9106 44.0625 17.8125 41.7844 17.8125 38.9719V35.625H27.1875V38.9719C27.1875 41.7844 25.0894 44.0625 22.5 44.0625Z" fill="#8B5C56"/>
<path d="M9.06185 26.5631C9.6581 26.9906 10.3894 27.2569 11.1712 27.2812L11.3812 30.6881C11.5099 31.6398 11.7817 32.5665 12.1875 33.4369C11.2577 33.0519 10.4638 32.3986 9.90711 31.5603C9.35038 30.722 9.05611 29.7369 9.06185 28.7306V26.5631ZM35.9381 26.5631C35.3419 26.9906 34.6106 27.2569 33.8287 27.2812L33.6187 30.6881C33.49 31.6397 33.2181 32.5665 32.8125 33.4369C33.7422 33.0519 34.5361 32.3986 35.0928 31.5603C35.6496 30.722 35.9438 29.7369 35.9381 28.7306V26.5631Z" fill="#2D242D"/>
<path d="M25.0819 6.5625H19.8994C14.0907 6.5625 9.7069 11.4244 10.3819 17.4506L11.2557 30.8119C11.5439 33.0091 12.6218 35.0265 14.2883 36.4873C15.9547 37.9481 18.0958 38.7526 20.3119 38.7506H24.7069C26.923 38.7526 29.0641 37.9481 30.7305 36.4873C32.397 35.0265 33.4749 33.0091 33.7631 30.8119L34.5994 17.4506C34.7816 16.0934 34.6717 14.7129 34.2769 13.4017C33.8821 12.0904 33.2117 10.8787 32.3104 9.84767C31.4092 8.81665 30.298 7.99016 29.0513 7.42358C27.8047 6.857 26.4513 6.56341 25.0819 6.5625Z" fill="#966661"/>
<path d="M33.8138 8.88751C35.0138 9.30001 36.0882 10.1381 36.7688 11.3381C37.8563 13.2506 37.6951 15.5381 36.5213 17.2256C36.1126 17.8256 35.8913 18.5381 35.8913 19.2619V20.67C35.4473 20.3605 34.9412 20.1513 34.4082 20.0569L34.5207 17.6625C34.5112 16.8011 34.173 15.9759 33.5753 15.3555C32.9776 14.7352 32.1655 14.3665 31.3051 14.325H28.0426C26.9499 14.3239 25.8811 14.0057 24.9658 13.4089C24.0505 12.8121 23.3281 11.9625 22.8863 10.9631C22.7721 10.6762 22.5747 10.43 22.3194 10.2562C22.0641 10.0825 21.7626 9.98909 21.4538 9.98813H18.4876C14.1863 9.98813 10.7007 13.5131 10.7007 17.8631V20.04C10.1222 20.1248 9.57172 20.3444 9.0938 20.6813V19.2619C9.0938 18.5381 8.87068 17.8256 8.4638 17.2256C7.89907 16.394 7.56987 15.4251 7.51111 14.4216C7.45236 13.4181 7.66623 12.4174 8.13005 11.5256C8.77052 10.2987 9.85276 9.36051 11.1582 8.90063C12.4956 8.42904 13.6329 7.51657 14.3832 6.31313C15.0662 5.21159 16.1215 4.39137 17.3575 4.00126C18.5935 3.61116 19.9284 3.67701 21.1201 4.18688C21.5585 4.37846 22.0319 4.47736 22.5104 4.47736C22.9889 4.47736 23.4622 4.37846 23.9007 4.18688C24.5569 3.91313 25.2732 3.75001 26.0269 3.75001C26.9614 3.75275 27.8793 3.99712 28.6915 4.45938C29.5036 4.92163 30.1824 5.58606 30.6619 6.38813C31.3858 7.56612 32.5019 8.45113 33.8138 8.88751Z" fill="#2D242D"/>
<path d="M21.6657 23.19L20.4957 27.345C20.2444 28.1925 20.8407 29.0625 21.6657 29.0625H23.4282C24.2532 29.0625 24.8494 28.1925 24.5982 27.345L23.4057 23.19C23.359 22.9943 23.2478 22.8201 23.09 22.6954C22.9321 22.5708 22.7368 22.503 22.5357 22.503C22.3345 22.503 22.1393 22.5708 21.9814 22.6954C21.8236 22.8201 21.7123 22.9943 21.6657 23.19Z" fill="#75443E"/>
<path d="M22.4963 31.8562C21.2269 31.8562 20.0775 31.4231 19.2263 30.9712C18.9206 30.8081 18.5944 31.2562 18.8325 31.5375C19.7063 32.5781 20.625 33.75 22.4963 33.75C24.3675 33.75 25.335 32.7131 26.1769 31.695C26.4131 31.4081 26.0269 30.9262 25.7156 31.0837C24.7181 31.5904 23.6151 31.8563 22.4963 31.8562Z" fill="#990838"/>
<path d="M19.2563 24.375C19.9031 24.375 20.4319 23.8181 20.1863 23.22C19.9167 22.5633 19.458 22.0016 18.8683 21.6063C18.2787 21.211 17.5849 20.9999 16.875 20.9999C16.1651 20.9999 15.4713 21.211 14.8817 21.6063C14.2921 22.0016 13.8333 22.5633 13.5638 23.22C13.32 23.8181 13.845 24.375 14.4919 24.375H19.2563ZM25.8338 24.375C25.1869 24.375 24.66 23.8181 24.9056 23.22C25.1755 22.5639 25.6343 22.0028 26.2237 21.6079C26.8131 21.213 27.5065 21.0022 28.216 21.0022C28.9254 21.0022 29.6189 21.213 30.2083 21.6079C30.7977 22.0028 31.2564 22.5639 31.5263 23.22C31.7719 23.8181 31.245 24.375 30.5981 24.375H25.8338Z" fill="white"/>
<path d="M15.1875 23.8125C15.1875 24.0075 15.2119 24.195 15.2587 24.375H19.2581C19.386 24.375 19.5129 24.3528 19.6331 24.3094C19.7022 24.0009 19.7055 23.6813 19.6428 23.3715C19.5801 23.0617 19.4528 22.7685 19.2692 22.5112C19.0857 22.2538 18.8499 22.038 18.5774 21.8779C18.3048 21.7177 18.0016 21.6168 17.6874 21.5817C17.3733 21.5466 17.0552 21.5781 16.754 21.6741C16.4528 21.7701 16.1753 21.9285 15.9394 22.139C15.7036 22.3495 15.5147 22.6073 15.3851 22.8956C15.2556 23.184 15.1882 23.4964 15.1875 23.8125ZM29.9044 23.8125C29.9044 24.0075 29.8781 24.195 29.8331 24.375H25.8337C25.7059 24.375 25.579 24.3528 25.4587 24.3094C25.3883 24.0005 25.384 23.6802 25.4459 23.3695C25.5079 23.0588 25.6348 22.7646 25.8183 22.5064C26.0017 22.2481 26.2377 22.0315 26.5107 21.8707C26.7837 21.7099 27.0876 21.6086 27.4025 21.5734C27.7173 21.5382 28.0361 21.5699 28.3379 21.6664C28.6396 21.7629 28.9176 21.922 29.1536 22.1334C29.3896 22.3448 29.5783 22.6036 29.7074 22.893C29.8364 23.1823 29.9029 23.4957 29.9025 23.8125" fill="#7D4533"/>
<path d="M16.0875 23.8407C16.0872 24.0107 16.119 24.1793 16.1813 24.3375H18.8063C18.8685 24.1793 18.9003 24.0107 18.9 23.8407C18.8961 23.4715 18.7457 23.119 18.4821 22.8606C18.2184 22.6022 17.8629 22.459 17.4938 22.4625C16.7175 22.4625 16.0875 23.0813 16.0875 23.8407ZM29.0044 23.8688C29.0046 24.0419 28.9728 24.2135 28.9107 24.375H26.2857C26.2116 24.1824 26.1808 23.9759 26.1955 23.77C26.2102 23.5642 26.27 23.3641 26.3707 23.184C26.4714 23.0039 26.6105 22.8481 26.7781 22.7278C26.9458 22.6074 27.1378 22.5255 27.3407 22.4877C27.5436 22.4499 27.7523 22.4572 27.952 22.5092C28.1517 22.5611 28.3376 22.6564 28.4964 22.7882C28.6552 22.92 28.783 23.0851 28.8708 23.2719C28.9586 23.4586 29.0042 23.6624 29.0044 23.8688Z" fill="black"/>
<path d="M16.875 23.25C17.0242 23.25 17.1673 23.1907 17.2727 23.0852C17.3782 22.9798 17.4375 22.8367 17.4375 22.6875C17.4375 22.5383 17.3782 22.3952 17.2727 22.2898C17.1673 22.1843 17.0242 22.125 16.875 22.125C16.7258 22.125 16.5827 22.1843 16.4773 22.2898C16.3718 22.3952 16.3125 22.5383 16.3125 22.6875C16.3125 22.8367 16.3718 22.9798 16.4773 23.0852C16.5827 23.1907 16.7258 23.25 16.875 23.25ZM28.2169 23.25C28.0677 23.25 27.9246 23.1907 27.8191 23.0852C27.7136 22.9798 27.6544 22.8367 27.6544 22.6875C27.6544 22.5383 27.7136 22.3952 27.8191 22.2898C27.9246 22.1843 28.0677 22.125 28.2169 22.125C28.3661 22.125 28.5091 22.1843 28.6146 22.2898C28.7201 22.3952 28.7794 22.5383 28.7794 22.6875C28.7794 22.8367 28.7201 22.9798 28.6146 23.0852C28.5091 23.1907 28.3661 23.25 28.2169 23.25Z" fill="white"/>
<path d="M15.1088 20.0963C15.3356 19.8731 15.7725 19.605 16.3763 19.3931C17.0357 19.1626 17.729 19.0441 18.4275 19.0425C18.5906 19.0425 18.7471 18.9777 18.8624 18.8624C18.9777 18.747 19.0425 18.5906 19.0425 18.4275C19.0425 18.2644 18.9777 18.108 18.8624 17.9926C18.7471 17.8773 18.5906 17.8125 18.4275 17.8125C17.5331 17.8125 16.6838 17.9812 15.9675 18.2325C15.2625 18.48 14.6456 18.8269 14.2463 19.2206C14.1851 19.2764 14.1358 19.3439 14.1013 19.4192C14.0669 19.4944 14.048 19.5759 14.0458 19.6586C14.0435 19.7413 14.058 19.8237 14.0884 19.9007C14.1187 19.9777 14.1643 20.0478 14.2224 20.1067C14.2805 20.1657 14.3499 20.2124 14.4264 20.2439C14.5029 20.2754 14.585 20.2911 14.6678 20.2901C14.7506 20.2891 14.8323 20.2715 14.9081 20.2382C14.9838 20.2048 15.0521 20.1566 15.1088 20.0963ZM30.1838 20.0963C29.9588 19.8731 29.52 19.605 28.9163 19.3931C28.2569 19.1626 27.5635 19.0441 26.865 19.0425C26.7019 19.0425 26.5455 18.9777 26.4302 18.8624C26.3148 18.747 26.25 18.5906 26.25 18.4275C26.25 18.2644 26.3148 18.108 26.4302 17.9926C26.5455 17.8773 26.7019 17.8125 26.865 17.8125C27.7594 17.8125 28.6088 17.9812 29.325 18.2325C30.03 18.48 30.6488 18.8269 31.0463 19.2206C31.1074 19.2764 31.1567 19.3439 31.1912 19.4192C31.2256 19.4944 31.2446 19.5759 31.2468 19.6586C31.249 19.7413 31.2345 19.8237 31.2042 19.9007C31.1738 19.9777 31.1282 20.0478 31.0701 20.1067C31.0121 20.1657 30.9427 20.2124 30.8661 20.2439C30.7896 20.2754 30.7075 20.2911 30.6247 20.2901C30.542 20.2891 30.4602 20.2715 30.3845 20.2382C30.3087 20.2048 30.2404 20.1566 30.1838 20.0963Z" fill="#372128"/>
<path d="M42.6 23.7019C42.7287 23.5637 42.884 23.4529 43.0565 23.3761C43.229 23.2992 43.4152 23.2579 43.604 23.2546C43.7928 23.2512 43.9804 23.286 44.1555 23.3567C44.3306 23.4274 44.4897 23.5327 44.6232 23.6662C44.7567 23.7997 44.862 23.9588 44.9327 24.1339C45.0035 24.309 45.0382 24.4966 45.0349 24.6854C45.0315 24.8742 44.9902 25.0604 44.9133 25.2329C44.8365 25.4054 44.7257 25.5607 44.5875 25.6894L44.0288 26.25C44.0288 26.25 52.2637 25.0519 53.4844 24.8438C54.0394 24.7613 54.8606 24.8438 54.8606 25.6707C55.1434 25.6942 55.4125 25.8027 55.6324 25.9819C55.8524 26.1612 56.013 26.4028 56.0931 26.675C56.1733 26.9472 56.1692 27.2373 56.0814 27.5071C55.9936 27.777 55.8262 28.014 55.6012 28.1869C55.5647 28.4931 55.4286 28.7788 55.2138 29C54.999 29.2213 54.7175 29.3658 54.4125 29.4113L54.1144 29.4563C54.1289 29.8029 54.0147 30.1426 53.7939 30.4101C53.5731 30.6777 53.2612 30.8542 52.9181 30.9057C52.9181 30.9057 47.8125 31.4063 46.875 31.875H39.375V29.0625C39.375 28.125 39.7725 26.79 40.3125 26.25L42.6 23.7019Z" fill="#966661"/>
<path d="M54.8606 25.6556C54.86 25.5786 54.8505 25.5018 54.8325 25.4269L45.9038 26.8631C45.877 26.8717 45.8541 26.8896 45.8393 26.9135C45.8245 26.9374 45.8187 26.9659 45.823 26.9937C45.8273 27.0215 45.8414 27.0468 45.8627 27.0652C45.8841 27.0835 45.9113 27.0937 45.9394 27.0938L54.8606 25.6706C54.8569 25.665 54.8569 25.6613 54.8606 25.6556ZM55.8113 27.9863C55.7498 28.0579 55.6813 28.1232 55.6069 28.1813L55.5638 27.9338C55.5388 27.7663 55.481 27.6053 55.3938 27.4602C55.3066 27.315 55.1916 27.1885 55.0554 27.0878C54.9192 26.9872 54.7645 26.9144 54.6001 26.8735C54.4358 26.8327 54.265 26.8247 54.0975 26.85L46.8919 27.9356C46.8627 27.9368 46.8342 27.9271 46.8118 27.9084C46.7893 27.8897 46.7746 27.8634 46.7704 27.8346C46.7662 27.8057 46.7729 27.7763 46.7891 27.752C46.8053 27.7278 46.8299 27.7103 46.8581 27.7031L54.0619 26.6194C54.4609 26.5591 54.8676 26.6598 55.1924 26.8992C55.5173 27.1387 55.7338 27.4973 55.7944 27.8963L55.8113 27.9863Z" fill="#764C49"/>
<path d="M54.2756 29.4319L54.1143 29.4562C54.1169 29.52 54.115 29.5839 54.1087 29.6475L53.9868 29.3362L53.9831 29.3231C53.9579 29.1558 53.9 28.995 53.8126 28.8501C53.7253 28.7052 53.6103 28.5789 53.4741 28.4784C53.338 28.3779 53.1833 28.3053 53.0191 28.2646C52.8548 28.2239 52.6842 28.2159 52.5168 28.2412L48.2437 28.8637C48.2129 28.8682 48.1815 28.8603 48.1566 28.8416C48.1316 28.823 48.1151 28.7952 48.1106 28.7644C48.1061 28.7335 48.1141 28.7022 48.1327 28.6772C48.1513 28.6522 48.1791 28.6357 48.21 28.6312L52.4831 28.0087C52.8801 27.9493 53.2845 28.0489 53.6085 28.2859C53.9325 28.5228 54.15 28.878 54.2137 29.2744L54.2756 29.4319Z" fill="#764C49"/>
</g>
</g>
<defs>
<filter id="filter0_d_1165_579" x="-0.25" y="3.75" width="60.4004" height="60.5" filterUnits="userSpaceOnUse" color-interpolation-filters="sRGB">
<feFlood flood-opacity="0" result="BackgroundImageFix"/>
<feColorMatrix in="SourceAlpha" type="matrix" values="0 0 0 0 0 0 0 0 0 0 0 0 0 0 0 0 0 0 127 0" result="hardAlpha"/>
<feOffset dy="4"/>
<feGaussianBlur stdDeviation="2"/>
<feComposite in2="hardAlpha" operator="out"/>
<feColorMatrix type="matrix" values="0 0 0 0 0 0 0 0 0 0 0 0 0 0 0 0 0 0 0.25 0"/>
<feBlend mode="normal" in2="BackgroundImageFix" result="effect1_dropShadow_1165_579"/>
<feBlend mode="normal" in="SourceGraphic" in2="effect1_dropShadow_1165_579" result="shape"/>
</filter>
<clipPath id="clip0_1165_579">
<rect width="60" height="60" fill="white"/>
</clipPath>
</defs>
</svg>
