<svg width="60" height="60" viewBox="0 0 60 60" fill="none" xmlns="http://www.w3.org/2000/svg">
<path d="M17.5 25V30C17.5 31.6675 18.5 35 22.5 35C26.5 35 27.5 31.6675 27.5 30V25M35 25L38.75 30M38.75 30L42.5 35M38.75 30L42.5 25M38.75 30L35 35" stroke="#87CEEB" stroke-width="4" stroke-linecap="round" stroke-linejoin="round"/>
<path d="M30 55C43.8071 55 55 43.8071 55 30C55 16.1929 43.8071 5 30 5C16.1929 5 5 16.1929 5 30C5 43.8071 16.1929 55 30 55Z" stroke="#87CEEB" stroke-width="4" stroke-linecap="round" stroke-linejoin="round"/>
</svg>
